<?xml version="1.0" standalone="no"?>
<!DOCTYPE svg PUBLIC "-//W3C//DTD SVG 20010904//EN"
 "http://www.w3.org/TR/2001/REC-SVG-20010904/DTD/svg10.dtd">
<svg version="1.0" xmlns="http://www.w3.org/2000/svg"
 width="256.000000pt" height="256.000000pt" viewBox="0 0 256.000000 256.000000"
 preserveAspectRatio="xMidYMid meet">

<g transform="translate(0.000000,256.000000) scale(0.100000,-0.100000)"
fill="#000000" stroke="none">
<path d="M1130 2550 c-308 -43 -565 -172 -771 -386 -170 -178 -278 -383 -330
-625 -32 -147 -32 -371 0 -519 95 -443 418 -809 839 -950 152 -50 242 -64 412
-64 170 0 260 14 412 64 349 117 641 396 777 745 62 157 84 281 84 465 0 123
-4 177 -22 260 -107 501 -496 889 -992 990 -118 24 -311 33 -409 20z m700
-525 c100 -22 165 -51 195 -87 l25 -30 0 -447 c0 -431 -1 -449 -20 -473 -44
-56 -199 -101 -395 -114 l-103 -7 -35 -71 c-156 -314 -576 -383 -827 -136 -71
69 -115 147 -140 246 -24 92 -25 135 -5 229 43 206 210 369 414 406 l71 12 0
184 c0 182 0 184 25 209 43 43 158 80 305 98 84 10 417 -3 490 -19z"/>
<path d="M1380 2000 c-203 -18 -353 -74 -324 -121 25 -42 208 -86 394 -95 261
-14 545 45 545 111 0 70 -345 128 -615 105z m5 -141 c154 -14 165 -16 165 -35
0 -24 -24 -27 -152 -14 -151 14 -218 28 -218 44 0 22 14 28 50 22 19 -3 89
-11 155 -17z"/>
<path d="M1050 1748 c0 -81 5 -91 65 -121 128 -64 539 -79 739 -27 101 26 140
48 144 83 l3 26 -44 -19 c-65 -29 -178 -53 -190 -41 -21 21 3 37 81 54 95 21
146 51 150 90 l3 27 -43 -18 c-102 -44 -233 -63 -435 -63 -207 0 -321 19 -455
76 -16 6 -18 0 -18 -67z"/>
<path d="M1050 1582 c0 -27 3 -28 72 -40 97 -17 187 -62 262 -133 l64 -59 98
0 c242 1 443 53 452 118 4 27 5 27 -49 3 -68 -30 -166 -48 -181 -33 -19 19 0
30 86 52 102 26 140 48 144 83 2 15 2 27 0 27 -2 0 -28 -9 -58 -21 -215 -82
-681 -75 -852 12 l-38 19 0 -28z"/>
<path d="M872 1476 c-79 -30 -130 -65 -192 -133 -107 -117 -146 -280 -105
-438 60 -227 299 -384 529 -346 258 43 436 281 399 536 -26 180 -154 333 -324
386 -89 28 -224 25 -307 -5z m322 -125 c267 -131 266 -512 -2 -643 -61 -30
-74 -33 -162 -33 -87 0 -100 3 -155 32 -74 38 -138 105 -173 181 -38 81 -38
202 0 283 66 144 194 222 350 216 62 -3 89 -10 142 -36z m246 -143 c34 -80 46
-166 33 -242 -13 -78 -56 -176 -77 -176 -24 0 -24 22 3 80 36 79 41 202 11
285 -34 96 -35 105 -12 105 14 0 26 -14 42 -52z m-681 -466 c56 -56 148 -100
228 -108 39 -4 64 -12 67 -21 8 -20 -18 -26 -86 -20 -107 10 -232 87 -299 183
-26 38 -29 47 -17 61 11 14 15 12 38 -18 14 -18 45 -53 69 -77z"/>
<path d="M978 1340 c-63 -11 -143 -56 -184 -104 -128 -149 -82 -398 89 -484
69 -34 144 -46 208 -33 161 34 269 175 257 335 -9 105 -77 210 -166 255 -29
15 -153 46 -156 40 -1 -1 -22 -5 -48 -9z m70 -88 c3 -25 9 -33 36 -42 19 -6
41 -19 50 -29 22 -24 36 -75 26 -91 -11 -17 -40 -5 -40 17 0 34 -40 63 -88 63
-52 0 -82 -21 -82 -56 0 -30 31 -50 98 -64 94 -21 137 -80 105 -147 -13 -28
-64 -63 -91 -63 -6 0 -12 -15 -14 -32 -2 -22 -9 -34 -20 -36 -14 -3 -18 4 -18
31 0 29 -5 37 -29 47 -43 18 -73 54 -74 92 -3 44 23 44 44 0 20 -43 34 -52 88
-52 51 0 81 21 81 56 0 29 -29 48 -96 63 -75 18 -112 44 -119 84 -9 49 15 91
65 113 32 14 40 23 40 44 0 51 33 53 38 2z"/>
<path d="M1939 1364 c-71 -29 -190 -50 -341 -60 l-117 -7 16 -30 c8 -17 23
-54 33 -81 l17 -51 79 3 c122 4 253 29 314 60 48 24 55 31 58 60 l3 33 -40
-21 c-47 -24 -168 -53 -187 -46 -24 9 -15 35 14 42 139 30 212 65 212 101 0
13 -1 22 -2 22 -2 -1 -28 -12 -59 -25z"/>
<path d="M1930 1145 c-60 -25 -234 -55 -323 -55 l-54 0 -1 -75 c-1 -42 -4 -81
-8 -87 -11 -17 204 -2 297 20 112 27 153 51 157 91 l3 32 -38 -19 c-47 -24
-170 -55 -189 -48 -24 9 -15 35 14 42 139 30 212 65 212 101 0 27 0 27 -70 -2z"/>
</g>
</svg>
